# xmcd
#
# Track frame offsets:
#	150
#	17265
#	33168
#	51202
#	72609
#	87444
#	106382
#	126600
#	144084
#	162098
#	182571
#	197358
#	214025
#	233463
#	251953
#	281964
#
# Disc length: 3774 seconds
#
# Revision: 1
# Processed by: cddbd v1.5.1PL2 Copyright (c) Steve Scherf et al.
# Submitted via: audiograbber 1.83.01
#
DISCID=df0ebc10
DTITLE=Rascal Flatts - CB90291
DYEAR=2005
DGENRE=Karaoke
TTITLE0=These Days
TTITLE1=Feels Like Today
TTITLE2=Bless The Broken Road
TTITLE3=Mayberry
TTITLE4=Love You Out Loud
TTITLE5=I Melt
TTITLE6=Fast Cars And Freedom
TTITLE7=Prayin' For Daylight
TTITLE8=I'm Movin' On
TTITLE9=Here's To You
TTITLE10=This Everyday Love
TTITLE11=While You Loved Me
TTITLE12=Long Slow Beautiful Dance
TTITLE13=My Worst Fear
TTITLE14=One Good Love
TTITLE15=DATA TRACK
EXTD=
EXTT0=
EXTT1=
EXTT2=
EXTT3=
EXTT4=
EXTT5=
EXTT6=
EXTT7=
EXTT8=
EXTT9=
EXTT10=
EXTT11=
EXTT12=
EXTT13=
EXTT14=
EXTT15=
PLAYORDER=
